<svg
 xmlns="http://www.w3.org/2000/svg"
 xmlns:xlink="http://www.w3.org/1999/xlink"
 width="11px" height="6px">
<path fill-rule="evenodd" fill="rgb(149, 149, 149)" d="M10.860,1.116 L7.193,5.628 C6.904,5.984 6.263,6.106 5.762,5.900 C5.657,5.857 5.575,5.798 5.500,5.736 C5.425,5.798 5.343,5.857 5.238,5.900 C4.737,6.106 4.096,5.984 3.807,5.628 L0.141,1.116 C-0.149,0.761 0.023,0.305 0.523,0.100 C1.025,-0.106 1.666,0.016 1.955,0.372 L5.500,4.734 L9.045,0.372 C9.334,0.016 9.975,-0.106 10.476,0.100 C10.977,0.305 11.149,0.761 10.860,1.116 Z"/>
</svg>

